<svg xmlns="http://www.w3.org/2000/svg" width="30" height="30" viewBox="0 0 30 30">
  <g id="SNS_insta" transform="translate(-199 -9284.471)">
    <rect id="사각형_1034" data-name="사각형 1034" width="30" height="30" rx="5" transform="translate(199 9284.472)" fill="#d3dbd9"/>
    <g id="그룹_883" data-name="그룹 883" transform="translate(205.163 9290.635)">
      <path id="패스_9962" data-name="패스 9962" d="M156.022,354.568h-7.47a5.1,5.1,0,0,0-5.1,5.1v7.471a5.1,5.1,0,0,0,5.1,5.1h7.47a5.1,5.1,0,0,0,5.1-5.1V359.67a5.1,5.1,0,0,0-5.1-5.1m3.474,12.7a3.386,3.386,0,0,1-3.387,3.385h-7.645a3.386,3.386,0,0,1-3.386-3.385v-7.646a3.386,3.386,0,0,1,3.386-3.386h7.645a3.386,3.386,0,0,1,3.387,3.386Z" transform="translate(-143.451 -354.568)" fill="#fff"/>
      <path id="패스_9963" data-name="패스 9963" d="M157.946,364.58a4.586,4.586,0,1,0,4.586,4.586,4.586,4.586,0,0,0-4.586-4.586m0,7.559a2.972,2.972,0,1,1,2.973-2.973,2.973,2.973,0,0,1-2.973,2.973" transform="translate(-149.109 -360.285)" fill="#fff"/>
      <path id="패스_9964" data-name="패스 9964" d="M173.675,361.684a1.068,1.068,0,1,0,1.068,1.068,1.068,1.068,0,0,0-1.068-1.068" transform="translate(-160.1 -358.632)" fill="#fff"/>
    </g>
  </g>
</svg>
