<svg xmlns="http://www.w3.org/2000/svg" width="30" height="30" viewBox="0 0 30 30">
  <g id="SNS_kakaotalk" transform="translate(-112 -9285)">
    <rect id="사각형_1031" data-name="사각형 1031" width="30" height="30" rx="5" transform="translate(112 9285)" fill="#d3dbd9"/>
    <g id="그룹_897" data-name="그룹 897" transform="translate(118.211 9291.875)">
      <g id="그룹_594" data-name="그룹 594">
        <path id="패스_196" data-name="패스 196" d="M1047.058,194.76l-.628,1.915,1.284,0-.64-1.911A.009.009,0,0,0,1047.058,194.76Z" transform="translate(-1040.123 -189.058)" fill="#fff"/>
        <path id="패스_197" data-name="패스 197" d="M1032.935,174.647c-4.854.014-8.78,3.134-8.769,6.969a6.758,6.758,0,0,0,4.1,5.851l-.82,3.1a.252.252,0,0,0,.4.278l3.556-2.415a11.154,11.154,0,0,0,1.58.108c4.853-.014,8.78-3.134,8.769-6.968S1037.789,174.633,1032.935,174.647Zm-4.411,8.795a.421.421,0,1,1-.841,0l-.009-3.053-.885,0a.356.356,0,0,1-.376-.381.371.371,0,0,1,.375-.384l2.608-.008a.372.372,0,0,1,.378.382.356.356,0,0,1-.375.383l-.884,0Zm4.069.428a.391.391,0,0,1-.411-.291L1032,183l-1.757.005-.187.569a.384.384,0,0,1-.4.3.4.4,0,0,1-.415-.388.5.5,0,0,1,.038-.185l1.211-3.236a.69.69,0,0,1,.624-.492.659.659,0,0,1,.628.487l1.192,3.224a.685.685,0,0,1,.048.216A.37.37,0,0,1,1032.592,183.87Zm3.229-.424a.383.383,0,0,1-.4.368l-1.567,0a.416.416,0,0,1-.441-.464l-.009-3.344a.421.421,0,1,1,.84,0l.009,3.045,1.166,0a.4.4,0,0,1,.3.116A.377.377,0,0,1,1035.821,183.446Zm3.5.074a.385.385,0,0,1-.418.331c-.022,0-.044,0-.066,0-.155-.016-.243-.113-.406-.331l-1.109-1.5-.3.309,0,1.132a.4.4,0,0,1-.419.4.39.39,0,0,1-.422-.4l-.01-3.48a.4.4,0,0,1,.42-.415.4.4,0,0,1,.421.413l0,1.347,1.477-1.548a.468.468,0,0,1,.334-.155.386.386,0,0,1,.4.386c0,.116-.069.192-.206.345-.031.035-.065.072-.1.115l-1.009,1.024,1.2,1.564A.646.646,0,0,1,1039.322,183.52Z" transform="translate(-1024.166 -174.647)" fill="#fff"/>
        <rect id="사각형_749" data-name="사각형 749" width="14.339" height="5.377" transform="translate(1.736 4.419)" fill="#fff"/>
      </g>
    </g>
  </g>
</svg>
